<svg width="20" height="20" viewBox="0 0 20 20" fill="none" xmlns="http://www.w3.org/2000/svg">
<path id="Vector" d="M8.08 8.86C8.13 8.53 8.24 8.24 8.38 8C8.68 7.44 9.19 7.15 9.88 7.14C10.33 7.14 10.74 7.34 11.03 7.63C11.31 7.94 11.5 8.37 11.5 8.8H13.3C13.28 8.33 13.19 7.9 13 7.5C12.85 7.12 12.62 6.78 12.32 6.5C10.87 5.16 8.18 5.35 6.95 6.87C5.66 8.54 5.63 11.46 6.94 13.13C8.15 14.62 10.8 14.83 12.24 13.5C12.55 13.25 12.8 12.94 13 12.58C13.16 12.22 13.27 11.84 13.28 11.43H11.5C11.5 11.64 11.43 11.83 11.34 12C11.25 12.19 11.13 12.34 11 12.47C10.67 12.73 10.28 12.87 9.86 12.87C9.5 12.86 9.2 12.79 8.97 12.64C8.71076 12.4942 8.50425 12.2702 8.38 12C7.88 11.1 7.96 9.85 8.08 8.86ZM10 0C4.5 0 0 4.5 0 10C0.53 23.27 19.5 23.26 20 10C20 4.5 15.5 0 10 0ZM10 18C5.59 18 2 14.41 2 10C2.44 -0.61 17.56 -0.61 18 10C18 14.41 14.41 18 10 18Z" fill="#D9D9D9"/>
</svg>
