<svg width="80" height="80" viewBox="0 0 80 80" fill="none" xmlns="http://www.w3.org/2000/svg">
<g id="gis:location-poi">
<path id="Vector" d="M39.8008 0C26.72 0 16 10.688 16 23.7328C16 28.7872 17.6144 33.4848 20.3464 37.3456L36.896 65.956C39.2136 68.984 40.7544 68.4088 42.6816 65.796L60.936 34.732C61.304 34.0648 61.5936 33.3544 61.8456 32.6288C63.004 29.806 63.5997 26.784 63.5992 23.7328C63.6 10.688 52.8832 0 39.8008 0ZM39.8008 11.12C46.8456 11.12 52.4472 16.7088 52.4472 23.7328C52.4472 30.7568 46.8456 36.3432 39.8008 36.3432C32.7568 36.3432 27.1528 30.7576 27.1528 23.7328C27.1528 16.7088 32.7568 11.1208 39.8008 11.1208V11.12Z" fill="#D9D9D9"/>
<path id="Vector_2" d="M55.1304 39.1265L55.092 39.2273C55.104 39.1969 55.1136 39.1657 55.1256 39.1353L55.1304 39.1265ZM27.2048 55.2457C15.904 56.8425 8 60.6625 8 66.2857C8 73.8601 21.2064 80.0001 40 80.0001C58.7936 80.0001 72 73.8601 72 66.2857C72 60.6625 64.0968 56.8425 52.7968 55.2457L51.2312 57.9113C59.748 59.0929 65.6 61.5761 65.6 64.4577C65.6 68.4977 54.1384 71.7721 40 71.7721C25.8616 71.7721 14.4 68.4977 14.4 64.4577C14.3992 61.5857 20.2128 59.1049 28.756 57.9185C28.24 57.0273 27.7216 56.1377 27.2048 55.2457Z" fill="#D9D9D9"/>
</g>
</svg>
