<svg width="40" height="40" viewBox="0 0 40 40" fill="none" xmlns="http://www.w3.org/2000/svg">
<rect x="1" y="1" width="38" height="38" rx="7" stroke="#05BCCA" stroke-width="2"/>
<path d="M25 26C25.5304 26 26.0391 26.2107 26.4142 26.5858C26.7893 26.9609 27 27.4696 27 28C27 28.5304 26.7893 29.0391 26.4142 29.4142C26.0391 29.7893 25.5304 30 25 30C24.4696 30 23.9609 29.7893 23.5858 29.4142C23.2107 29.0391 23 28.5304 23 28C23 26.89 23.89 26 25 26ZM9 10H12.27L13.21 12H28C28.2652 12 28.5196 12.1054 28.7071 12.2929C28.8946 12.4804 29 12.7348 29 13C29 13.17 28.95 13.34 28.88 13.5L25.3 19.97C24.96 20.58 24.3 21 23.55 21H16.1L15.2 22.63L15.17 22.75C15.17 22.8163 15.1963 22.8799 15.2432 22.9268C15.2901 22.9737 15.3537 23 15.42 23H27V25H15C14.4696 25 13.9609 24.7893 13.5858 24.4142C13.2107 24.0391 13 23.5304 13 23C13 22.65 13.09 22.32 13.24 22.04L14.6 19.59L11 12H9V10ZM15 26C15.5304 26 16.0391 26.2107 16.4142 26.5858C16.7893 26.9609 17 27.4696 17 28C17 28.5304 16.7893 29.0391 16.4142 29.4142C16.0391 29.7893 15.5304 30 15 30C14.4696 30 13.9609 29.7893 13.5858 29.4142C13.2107 29.0391 13 28.5304 13 28C13 26.89 13.89 26 15 26ZM24 19L26.78 14H14.14L16.5 19H24Z" fill="#05BCCA"/>
</svg>
