<svg width="64" height="64" viewBox="0 0 64 64" fill="none" xmlns="http://www.w3.org/2000/svg">
<g clip-path="url(#clip0_3_200)">
<path d="M58.0775 0.000254117C57.4474 0.000254117 56.7877 0.211946 56.3077 0.691946L55.3083 1.7701L54.8455 1.3861C54.7313 1.26681 54.5942 1.17188 54.4423 1.10703C54.2904 1.04217 54.127 1.00874 53.9619 1.00874C53.7967 1.00874 53.6333 1.04217 53.4814 1.10703C53.3295 1.17188 53.1924 1.26681 53.0782 1.3861C52.9589 1.5003 52.8639 1.63747 52.7991 1.78935C52.7342 1.94122 52.7008 2.10465 52.7008 2.26979C52.7008 2.43493 52.7342 2.59837 52.7991 2.75024C52.8639 2.90211 52.9589 3.03928 53.0782 3.15349L53.4622 3.61625L52.8468 4.23164L52.384 3.84518C52.2698 3.72589 52.1326 3.63096 51.9808 3.56611C51.8289 3.50125 51.6655 3.46782 51.5003 3.46782C51.3352 3.46782 51.1717 3.50125 51.0199 3.56611C50.868 3.63096 50.7308 3.72589 50.6166 3.84518C50.4966 3.95945 50.401 4.09692 50.3357 4.24925C50.2704 4.40158 50.2367 4.56559 50.2367 4.73133C50.2367 4.89707 50.2704 5.06109 50.3357 5.21342C50.401 5.36575 50.4966 5.50322 50.6166 5.61749L51.0006 6.07779L50.5378 6.5381C50.2393 6.83355 50.025 7.20322 49.9168 7.60905C49.8087 8.01488 49.8106 8.4422 49.9225 8.84702L39.1532 19.6163C36.9305 17.6716 33.568 15.3849 29.9225 15.3849C28.3052 15.3849 26.6437 15.8772 24.9994 16.9996C21.3514 19.4932 22.0505 23.2716 19.7686 25.4624C17.2086 27.9239 10.2105 25.9399 3.76862 32.3843C-2.67323 38.8236 0.182158 47.7319 8.384 55.6163C13.3022 60.7313 18.5945 63.7689 23.4609 63.7689C26.3926 63.7689 29.1914 62.6563 31.616 60.2316C38.0578 53.7898 36.0739 46.7966 38.5378 44.2316C40.7286 41.9547 44.5809 42.7276 47.0769 39.0772C50.7372 33.7283 47.2049 28.0716 44.384 24.847L55.1532 14.0778C55.9655 14.2846 56.8246 14.0999 57.4622 13.4624L57.9225 12.9996L58.3852 13.3861C58.4913 13.5056 58.6212 13.6015 58.7667 13.6677C58.9121 13.7338 59.0698 13.7687 59.2295 13.7701C59.5761 13.7678 59.9078 13.6289 60.1526 13.3836C60.2719 13.2694 60.3668 13.1323 60.4317 12.9804C60.4965 12.8285 60.53 12.6651 60.53 12.4999C60.53 12.3348 60.4965 12.1714 60.4317 12.0195C60.3668 11.8676 60.2719 11.7305 60.1526 11.6163L59.7686 11.1535L60.384 10.5381L60.8468 10.9246C60.9528 11.0441 61.0828 11.14 61.2282 11.2061C61.3736 11.2723 61.5313 11.3072 61.6911 11.3086C62.0376 11.3062 62.3693 11.1674 62.6142 10.9221C62.7334 10.8079 62.8284 10.6707 62.8932 10.5189C62.9581 10.367 62.9915 10.2035 62.9915 10.0384C62.9915 9.87327 62.9581 9.70984 62.8932 9.55796C62.8284 9.40609 62.7334 9.26892 62.6142 9.15472L62.2302 8.69195L63.3083 7.69256C63.5368 7.46601 63.7181 7.19645 63.8419 6.89945C63.9657 6.60244 64.0294 6.28386 64.0294 5.9621C64.0294 5.64034 63.9657 5.32176 63.8419 5.02476C63.7181 4.72775 63.5368 4.45819 63.3083 4.23164L59.7662 0.689485C59.5462 0.466075 59.283 0.289761 58.9927 0.171273C58.7024 0.0527839 58.391 -0.0054024 58.0775 0.000254117ZM57.9225 2.92456C58.112 2.92456 58.3163 2.93441 58.4615 3.07718C58.6003 3.22236 58.6777 3.41544 58.6777 3.61625C58.6777 3.81707 58.6003 4.01015 58.4615 4.15533L53.5385 9.07841C53.3955 9.22203 53.202 9.30417 52.9994 9.30733C52.7975 9.30186 52.6054 9.21903 52.4628 9.07595C52.3248 8.93089 52.2478 8.73832 52.2478 8.5381C52.2478 8.33788 52.3248 8.14532 52.4628 8.00025L57.3858 3.07718C57.5286 2.93441 57.7354 2.92456 57.9225 2.92456ZM60.384 5.3861C60.5735 5.3861 60.7779 5.39349 60.9231 5.53872C61.0624 5.68361 61.1402 5.8768 61.1402 6.07779C61.1402 6.27879 61.0624 6.47197 60.9231 6.61687L56 11.5399C55.8564 11.6827 55.6634 11.7647 55.4609 11.7689C55.2593 11.7641 55.0673 11.6821 54.9243 11.5399C54.7856 11.3948 54.7082 11.2017 54.7082 11.0009C54.7082 10.8001 54.7856 10.607 54.9243 10.4618L59.8474 5.53872C59.9902 5.39595 60.1969 5.3861 60.384 5.3861ZM29.9225 18.8433C32.2855 18.8433 34.7815 20.4483 36.6917 22.0753L28.4603 30.3067C28.2782 30.287 28.1108 30.2279 27.9237 30.2279C26.3748 30.2331 24.8908 30.8507 23.7956 31.946C22.7003 33.0412 22.0827 34.5252 22.0775 36.0741C22.0827 37.623 22.7003 39.107 23.7956 40.2022C24.8908 41.2975 26.3748 41.9151 27.9237 41.9203C29.4726 41.9151 30.9566 41.2975 32.0518 40.2022C33.1471 39.107 33.7647 37.623 33.7698 36.0741C33.7698 35.887 33.7108 35.7196 33.6935 35.535L41.9988 27.2298C44.1354 29.7061 46.5477 33.6889 44.2314 37.0759C43.4782 38.1738 42.5305 38.5775 40.8468 39.151C39.3649 39.6556 37.5114 40.271 36 41.8439C34.3409 43.5695 33.9717 45.839 33.5385 48.2292C32.992 51.2298 32.3791 54.6218 29.1545 57.844C27.4609 59.5375 25.5951 60.3818 23.4609 60.3818C19.7268 60.3818 15.2468 57.807 10.8455 53.2286C10.8213 53.2019 10.7959 53.1765 10.7692 53.1523C6.2277 48.7929 3.65293 44.3326 3.616 40.6156C3.59139 38.447 4.43816 36.5664 6.15385 34.8458C9.37847 31.6212 12.7705 31.0058 15.7686 30.4618C18.1588 30.0286 20.4308 29.583 22.1539 27.9239C23.7145 26.4273 24.3323 24.6181 24.8468 23.1535C25.4375 21.4747 25.8068 20.6083 26.9243 19.8452C27.8794 19.1929 28.8689 18.8433 29.9225 18.8433ZM13.6911 40.0741C13.4889 40.0786 13.2965 40.1615 13.1545 40.3055L11.616 41.8464C11.475 41.9904 11.396 42.1839 11.396 42.3855C11.396 42.587 11.475 42.7806 11.616 42.9246L21.0757 52.3843C21.3662 52.6723 21.8634 52.6723 22.1539 52.3843L23.6923 50.8458C23.8314 50.7013 23.9092 50.5085 23.9092 50.3079C23.9092 50.1074 23.8314 49.9146 23.6923 49.7701L14.2302 40.3079C14.0882 40.164 13.8957 40.081 13.6935 40.0766L13.6911 40.0741Z" fill="#C46A2B"/>
</g>
<defs>
<clipPath id="clip0_3_200">
<rect width="64" height="64" fill="white"/>
</clipPath>
</defs>
</svg>
