<svg width="40" height="40" viewBox="0 0 40 40" fill="none" xmlns="http://www.w3.org/2000/svg">
<rect width="40" height="40" rx="8" fill="#05BCCA"/>
<path d="M26 27V25.75C26 23.679 24.081 22 21.714 22H18.286C15.919 22 14 23.679 14 25.75V27M23 16C23 16.7956 22.6839 17.5587 22.1213 18.1213C21.5587 18.6839 20.7956 19 20 19C19.2044 19 18.4413 18.6839 17.8787 18.1213C17.3161 17.5587 17 16.7956 17 16C17 15.2044 17.3161 14.4413 17.8787 13.8787C18.4413 13.3161 19.2044 13 20 13C20.7956 13 21.5587 13.3161 22.1213 13.8787C22.6839 14.4413 23 15.2044 23 16Z" stroke="#2C4246" stroke-width="2" stroke-linecap="round" stroke-linejoin="round"/>
</svg>
